<mxfile host="app.diagrams.net" agent="Mozilla/5.0 (Windows NT 10.0; Win64; x64) AppleWebKit/537.36 (KHTML, like Gecko) Chrome/136.0.0.0 Safari/537.36" version="26.2.14">
  <diagram name="Sida-1" id="zjHYMJxAg3mKVfapwsNn">
    <mxGraphModel dx="905" dy="1135" grid="1" gridSize="10" guides="1" tooltips="1" connect="1" arrows="1" fold="1" page="1" pageScale="1" pageWidth="827" pageHeight="1169" math="0" shadow="0">
      <root>
        <mxCell id="0" />
        <mxCell id="1" parent="0" />
        <mxCell id="tAz28tdVWhwVygO2mN5v-3" value="" style="edgeStyle=orthogonalEdgeStyle;rounded=0;orthogonalLoop=1;jettySize=auto;html=1;" edge="1" parent="1" source="tAz28tdVWhwVygO2mN5v-1" target="tAz28tdVWhwVygO2mN5v-2">
          <mxGeometry relative="1" as="geometry" />
        </mxCell>
        <mxCell id="tAz28tdVWhwVygO2mN5v-5" value="" style="edgeStyle=orthogonalEdgeStyle;rounded=0;orthogonalLoop=1;jettySize=auto;html=1;" edge="1" parent="1" source="tAz28tdVWhwVygO2mN5v-1" target="tAz28tdVWhwVygO2mN5v-4">
          <mxGeometry relative="1" as="geometry" />
        </mxCell>
        <mxCell id="tAz28tdVWhwVygO2mN5v-1" value="&lt;font style=&quot;font-size: 24px;&quot;&gt;Start&lt;/font&gt;" style="rounded=1;whiteSpace=wrap;html=1;" vertex="1" parent="1">
          <mxGeometry x="290" y="210" width="120" height="60" as="geometry" />
        </mxCell>
        <mxCell id="tAz28tdVWhwVygO2mN5v-7" value="" style="edgeStyle=orthogonalEdgeStyle;rounded=0;orthogonalLoop=1;jettySize=auto;html=1;" edge="1" parent="1" source="tAz28tdVWhwVygO2mN5v-2" target="tAz28tdVWhwVygO2mN5v-6">
          <mxGeometry relative="1" as="geometry" />
        </mxCell>
        <mxCell id="tAz28tdVWhwVygO2mN5v-2" value="Sök kund" style="whiteSpace=wrap;html=1;rounded=1;" vertex="1" parent="1">
          <mxGeometry x="400" y="350" width="120" height="60" as="geometry" />
        </mxCell>
        <mxCell id="tAz28tdVWhwVygO2mN5v-4" value="Registera nykund" style="whiteSpace=wrap;html=1;rounded=1;" vertex="1" parent="1">
          <mxGeometry x="200" y="350" width="120" height="60" as="geometry" />
        </mxCell>
        <mxCell id="tAz28tdVWhwVygO2mN5v-9" value="" style="edgeStyle=orthogonalEdgeStyle;rounded=0;orthogonalLoop=1;jettySize=auto;html=1;" edge="1" parent="1" source="tAz28tdVWhwVygO2mN5v-6" target="tAz28tdVWhwVygO2mN5v-8">
          <mxGeometry relative="1" as="geometry" />
        </mxCell>
        <mxCell id="tAz28tdVWhwVygO2mN5v-6" value="Sök kund med kund ID" style="whiteSpace=wrap;html=1;rounded=1;" vertex="1" parent="1">
          <mxGeometry x="400" y="490" width="120" height="60" as="geometry" />
        </mxCell>
        <mxCell id="tAz28tdVWhwVygO2mN5v-11" value="" style="edgeStyle=orthogonalEdgeStyle;rounded=0;orthogonalLoop=1;jettySize=auto;html=1;" edge="1" parent="1" source="tAz28tdVWhwVygO2mN5v-8" target="tAz28tdVWhwVygO2mN5v-10">
          <mxGeometry relative="1" as="geometry" />
        </mxCell>
        <mxCell id="tAz28tdVWhwVygO2mN5v-8" value="Se kundens köp historik o info" style="whiteSpace=wrap;html=1;rounded=1;" vertex="1" parent="1">
          <mxGeometry x="400" y="630" width="120" height="60" as="geometry" />
        </mxCell>
        <mxCell id="tAz28tdVWhwVygO2mN5v-15" value="" style="edgeStyle=orthogonalEdgeStyle;rounded=0;orthogonalLoop=1;jettySize=auto;html=1;" edge="1" parent="1" source="tAz28tdVWhwVygO2mN5v-10" target="tAz28tdVWhwVygO2mN5v-14">
          <mxGeometry relative="1" as="geometry" />
        </mxCell>
        <mxCell id="tAz28tdVWhwVygO2mN5v-10" value="Registerna köp" style="whiteSpace=wrap;html=1;rounded=1;" vertex="1" parent="1">
          <mxGeometry x="400" y="770" width="120" height="60" as="geometry" />
        </mxCell>
        <mxCell id="tAz28tdVWhwVygO2mN5v-12" value="" style="endArrow=classic;html=1;rounded=0;entryX=0;entryY=0.5;entryDx=0;entryDy=0;" edge="1" parent="1" target="tAz28tdVWhwVygO2mN5v-10">
          <mxGeometry width="50" height="50" relative="1" as="geometry">
            <mxPoint x="260" y="800" as="sourcePoint" />
            <mxPoint x="260" y="760" as="targetPoint" />
          </mxGeometry>
        </mxCell>
        <mxCell id="tAz28tdVWhwVygO2mN5v-13" value="" style="endArrow=none;html=1;rounded=0;entryX=0.5;entryY=1;entryDx=0;entryDy=0;" edge="1" parent="1" target="tAz28tdVWhwVygO2mN5v-4">
          <mxGeometry width="50" height="50" relative="1" as="geometry">
            <mxPoint x="260" y="800" as="sourcePoint" />
            <mxPoint x="430" y="550" as="targetPoint" />
          </mxGeometry>
        </mxCell>
        <mxCell id="tAz28tdVWhwVygO2mN5v-17" value="" style="edgeStyle=orthogonalEdgeStyle;rounded=0;orthogonalLoop=1;jettySize=auto;html=1;" edge="1" parent="1" source="tAz28tdVWhwVygO2mN5v-14" target="tAz28tdVWhwVygO2mN5v-16">
          <mxGeometry relative="1" as="geometry" />
        </mxCell>
        <mxCell id="tAz28tdVWhwVygO2mN5v-14" value="Rabatt beräkningar&amp;nbsp;" style="whiteSpace=wrap;html=1;rounded=1;" vertex="1" parent="1">
          <mxGeometry x="400" y="910" width="120" height="60" as="geometry" />
        </mxCell>
        <mxCell id="tAz28tdVWhwVygO2mN5v-16" value="Rapport" style="whiteSpace=wrap;html=1;rounded=1;" vertex="1" parent="1">
          <mxGeometry x="400" y="1050" width="120" height="60" as="geometry" />
        </mxCell>
      </root>
    </mxGraphModel>
  </diagram>
</mxfile>
